<svg width="264" height="264" viewBox="0 0 264 264" fill="none" xmlns="http://www.w3.org/2000/svg">
<path d="M229.665 157.022C226.791 157.022 224.362 157.022 221.452 157.022C221.452 159.886 221.452 162.638 221.452 165.386C221.452 169.439 218.221 172.725 214.168 172.725V172.725C210.115 172.725 206.775 169.439 206.775 165.386C206.775 162.694 206.775 159.931 206.775 157.051C201.473 157.051 201.438 157.051 196.384 157.051C196.384 152.118 196.384 147.629 196.384 142.792C201.292 142.792 201.341 142.792 206.498 142.792C206.498 139.997 206.498 137.292 206.498 134.581C206.498 130.483 209.802 127.161 213.9 127.161V127.161C217.998 127.161 221.337 130.483 221.337 134.581C221.337 137.217 221.337 139.869 221.337 142.601C223.866 142.601 226.276 142.601 228.674 142.601C232.657 142.601 235.885 145.829 235.885 149.812C235.885 150.141 235.885 150.471 235.885 150.802C235.885 154.238 233.1 157.023 229.665 157.022V157.022Z" fill="#FF8236"/>
<path d="M153.094 142.863C155.969 142.864 158.398 142.864 161.307 142.864C161.307 140 161.307 137.248 161.307 134.5C161.307 130.447 164.538 127.161 168.591 127.161V127.161C172.644 127.161 175.984 130.446 175.984 134.499C175.984 137.192 175.984 139.955 175.984 142.835C181.287 142.835 181.314 142.835 186.368 142.835C186.368 147.768 186.368 152.257 186.368 157.093C181.46 157.093 181.419 157.093 176.262 157.093C176.262 159.889 176.262 162.594 176.262 165.305C176.262 169.403 172.957 172.725 168.86 172.725V172.725C164.762 172.725 161.422 169.403 161.422 165.305C161.422 162.669 161.422 160.017 161.422 157.285C158.893 157.285 156.484 157.285 154.085 157.285C150.103 157.285 146.874 154.056 146.874 150.074C146.874 149.745 146.874 149.415 146.874 149.083C146.874 145.648 149.659 142.863 153.094 142.863V142.863Z" fill="#FF8236"/>
<path fill-rule="evenodd" clip-rule="evenodd" d="M142.114 45.2382C144.949 46.6406 144.087 48.6771 143.291 50.4754C143.001 51.1309 142.713 51.7881 142.424 52.4456C140.823 56.0975 139.217 59.7593 137.254 63.2122C134.69 67.7245 133.969 72.1034 134.718 76.425C135.779 76.6467 136.846 76.8782 137.916 77.1194C140.063 69.1673 143.313 61.8666 150.34 56.3784C154.237 53.3347 158.881 52.5295 163.741 53.4167C166.806 53.9761 167.354 55.1539 165.72 57.7847C165.608 57.9647 165.496 58.1449 165.384 58.3252C163.881 60.7487 162.364 63.1964 160.522 65.3492C155.705 70.9818 156.079 76.8613 159.133 83.0193C159.817 83.2456 160.5 83.4751 161.183 83.7078C172.683 87.6287 177.516 100.775 172.451 111.819L169.949 117.273C153.793 109.863 135.437 103.1 119.57 100.817C119.293 100.777 118.925 100.719 118.479 100.649C112.549 99.7223 92.8929 96.6489 91.0237 104.451L91.0191 104.47C90.054 108.427 90.9132 112.361 91.78 116.33C92.9307 121.599 94.095 126.93 91.0237 132.458C88.0952 137.729 82.3817 140.345 76.8738 142.335C75.8854 142.692 74.8542 143.051 73.7966 143.419C63.0234 147.168 49.5058 151.871 50.5002 165.426C51.8566 183.916 76.7213 188.107 92.8753 190.83C93.4693 190.93 94.0515 191.028 94.6203 191.125C104.41 192.791 114.831 190.226 125.131 187.691C134.359 185.419 143.49 183.171 151.981 184.013C161.451 184.952 168.196 189.989 174.294 194.543C179.765 198.629 184.717 202.327 190.651 202.327C197.695 202.327 202.659 200.151 206.23 198.585C209.02 197.362 210.959 196.512 212.374 197.365C215.601 199.308 206.98 221.281 190.651 221.281C182.127 221.281 175.694 218.458 169.545 215.76C163.916 213.289 158.524 210.923 151.981 210.923C146.86 210.923 140.616 212.768 133.299 214.929C121.058 218.545 105.818 223.046 87.8198 221.281C59.0636 218.46 16.4933 202.541 14.1171 170.151C12.1175 142.894 41.5744 124.106 64.291 117.009C61.6175 103.844 63.224 90.9669 73.8515 81.7137C80.3917 76.0193 89.2057 73.9986 96.7861 73.2898C101.748 72.8258 107.118 72.8441 112.689 73.2406C114.024 67.1837 116.323 61.4235 119.904 56.2059C125.156 48.5519 132.354 44.5736 142.114 45.2382ZM164.455 97.0679C164.455 100.146 161.96 102.641 158.882 102.641C155.804 102.641 153.308 100.146 153.308 97.0679C153.308 93.9899 155.804 91.4946 158.882 91.4946C161.96 91.4946 164.455 93.9899 164.455 97.0679Z" fill="#FF8236"/>
</svg>
